<?xml version="1.0" encoding="utf-8"?>
<!-- Generator: Adobe Illustrator 25.4.1, SVG Export Plug-In . SVG Version: 6.00 Build 0)  -->
<svg version="1.1" id="cow_00000031900594653741115300000012477496874641076122_"
	 xmlns="http://www.w3.org/2000/svg" xmlns:xlink="http://www.w3.org/1999/xlink" x="0px" y="0px" viewBox="0 0 200 200"
	 style="enable-background:new 0 0 200 200;" xml:space="preserve">
<path id="cow" d="M192.1,93.7c-0.8-0.6-20.1-15.1-37.3-12c-4.3,0.7-8.3,2.7-11.6,5.6c2.1-5.6,4-13.7,1.8-21.5
	c-1.8-6.3-6-11.3-12.6-14.9c-0.5-0.3-1.1-0.1-1.4,0.4c-0.1,0.3-0.2,0.6,0,0.9c1.7,4,2.8,8.2,3.4,12.4c0.9,8.4-1.6,14.2-7.4,17.3
	c-0.2-0.1-0.4-0.1-0.6-0.1c-1.9-1.9-7.7-5.6-22.3-5.9c0,0-0.1,0-0.1,0c-17.3-0.8-23.6,4.3-25.4,6.3c-6.1-3-8.7-8.9-7.8-17.5
	c0.5-4.3,1.7-8.5,3.4-12.4c0.2-0.5,0-1.1-0.5-1.3c-0.3-0.1-0.6-0.1-0.9,0c-6.5,3.5-10.7,8.5-12.4,14.8c-2.1,7.7,0,15.8,2.1,21.4
	c-3.2-2.8-7.1-4.7-11.3-5.4c-17.4-3.2-37.2,11.4-38,12c-0.4,0.3-0.5,0.8-0.3,1.2c5.5,10,12.9,16.2,22,18.6c12.3,3.2,24.2-1.5,29.1-4
	c-2.8,11.6,9.8,27.5,10.3,28.2l0.1,0.1c4.6,4.6,2.2,12.3,1.7,13.6c-4.9,5-7.3,9.8-7.1,14.3c0.1,2.1,0.8,4.1,2.1,5.8
	c-0.5,0.3-0.7,0.9-0.4,1.4c0.2,0.3,0.5,0.5,0.9,0.5h1.7c3,0,4.7,3.1,4.7,3.2c6.2,12.4,18.8,13.6,23.4,13.6c0.5,0,1,0,1.3,0
	s0.7,0,1.3,0c4.6,0,17.2-1.2,23.4-13.6c0,0,1.6-3.2,4.7-3.2h1.6c0.6,0,1-0.4,1-1c0-0.4-0.2-0.7-0.5-0.9c1.2-1.7,2-3.7,2.1-5.8
	c0.2-4.5-2.1-9.3-7.1-14.3c-0.4-1.3-2.9-9,1.7-13.6c0,0,0.1,0,0.1-0.1c0.6-0.7,13.2-16.7,10.3-28.2c4.9,2.4,16.8,7.2,29.1,4
	c9.1-2.4,16.5-8.7,22-18.6C192.6,94.6,192.5,94,192.1,93.7z M134.1,54.2c4.4,2.8,7.7,7.1,9.1,12.2c3,10.6-2.4,22.3-4.2,25.8l0,0
	c-4.4-1.5-8.2-4.5-10.7-8.5C140.5,76.9,136.4,60.7,134.1,54.2L134.1,54.2z M62.4,66.2c1.4-5,4.6-9.2,8.9-12
	c-2.4,6.6-6.6,23.1,6.1,29.6c-2.4,3.9-5.9,6.9-10.2,8.6C65.6,89.4,59.4,77.1,62.4,66.2L62.4,66.2z M76,136.6
	c-0.7-0.9-13.8-17.9-9.3-28.1c1.6-0.6,10-3.6,16.9,1.1c7.4,5,10.8,16.8,10.2,35.1h0.4c-5.4,0.7-10.6,2.5-15.4,5.1
	C79.5,146.5,80,140.7,76,136.6L76,136.6z M134.3,165.7c-0.1,2.2-1,4.3-2.6,5.9c-4,0.2-6,4.1-6.1,4.3c-6.1,12.2-18.6,12.7-22.2,12.5
	c-0.1-0.1-0.3-0.1-0.4-0.1h-0.2h-0.2c-0.2,0-0.3,0-0.4,0.1c-3.6,0.1-16.1-0.3-22.2-12.5c-0.1-0.2-2.1-4-6.1-4.3
	c-1.6-1.6-2.5-3.7-2.6-5.9c-0.2-3.9,2-8.2,6.6-12.8c4.1-2.8,8.7-4.7,13.6-5.7c7.9-1.7,20.7-2.1,36.5,5.8
	C132.3,157.5,134.5,161.8,134.3,165.7L134.3,165.7z M129.5,136.6c-4.2,4.3-3.5,10.4-2.7,13.6c-4.2-2-8.7-3.6-13.2-4.6
	c-0.6-18.4,2.8-31.8,9.9-36.5c6.9-4.5,15-0.6,15.1-0.6l0.2-0.4C143.5,118.4,130.2,135.6,129.5,136.6L129.5,136.6z M169.9,111.7
	c-14.9,3.9-29.7-4.9-29.9-5c-0.3-0.2-0.6-0.2-0.9,0c-1.6-0.7-9.6-3.8-16.7,0.8c-7.8,5.1-11.4,18.6-10.8,37.7
	c-5.2-1-10.5-1.3-15.8-0.7c0.7-18.9-3.1-31.2-11.1-36.6c-7.6-5.1-16.4-2.2-18.6-1.4c-0.2,0-0.4,0-0.6,0.1c-0.2,0.1-14.9,9-29.9,5
	c-8.3-2.2-15.1-7.9-20.3-16.9c3.7-2.6,21-13.8,35.8-11.2c6.2,1.1,11.3,4.7,15,10.4l0,0c0.1,0.1,0.2,0.2,0.3,0.3h0.1l0.2,0.1h0.1h0.1
	h0.2c0.3-0.1,7.9-2.1,12.7-10.7l0,0c0-0.1,4.4-6.4,22.1-6.1c0.1,0,0.2,0.1,0.3,0.1c19.4,0,23.5,6,23.5,6c0.2,0.3,0.4,0.4,0.7,0.5
	c2.7,4.6,7,8,12,9.7c0.1,0.2,0.2,0.3,0.4,0.4c0.5,0.3,1.1,0.1,1.4-0.3c3.8-5.8,8.8-9.4,15.1-10.5c14.5-2.6,31.4,8.6,35,11.2
	C185,103.8,178.2,109.5,169.9,111.7L169.9,111.7z"/>
<g id="nose-hole">
	<path id="nose-hole-1" d="M85.4,160.5c-2.1,0-3.7,1.7-3.7,3.7c0,2.1,1.7,3.7,3.7,3.7c2.1,0,3.7-1.7,3.7-3.7c0,0,0,0,0,0
		C89.1,162.1,87.4,160.5,85.4,160.5z"/>
	<path id="nose-hole-2" d="M119.8,160.5c-2.1,0-3.7,1.7-3.7,3.7s1.7,3.7,3.7,3.7c2.1,0,3.7-1.7,3.7-3.7c0,0,0,0,0,0
		C123.5,162.1,121.8,160.5,119.8,160.5C119.8,160.5,119.8,160.5,119.8,160.5z"/>
</g>
<path id="heart" d="M102.4,66.7c-0.5,0-0.9-0.2-1.2-0.6L87.2,48.9c-3.5-3.5-5.2-6.8-5.2-10.5c0-6,4.9-10.9,11-10.9
	c3.4,0,6.6,1.6,8.7,4.2c3.7-4.8,10.6-5.7,15.4-2c2.7,2.1,4.2,5.3,4.2,8.7c0,2.5-0.8,4.9-2.4,6.8l-15.2,20.8
	C103.4,66.5,102.9,66.7,102.4,66.7L102.4,66.7z M93,30.5c-4.4,0-8,3.6-7.9,8c0,2.8,1.3,5.4,4.3,8.4l0.1,0.1l12.9,15.8l14.1-19.4
	c2.7-3.4,2.1-8.4-1.3-11.2c-3.4-2.7-8.4-2.1-11.2,1.3c-0.4,0.5-0.8,1.1-1,1.7c-0.3,0.8-1.2,1.1-2,0.8c-0.3-0.2-0.6-0.4-0.8-0.8
	C99,32.4,96.1,30.5,93,30.5z"/>
</svg>
