<?xml version="1.0" encoding="utf-8"?>
<!-- Generator: Adobe Illustrator 25.4.1, SVG Export Plug-In . SVG Version: 6.00 Build 0)  -->
<svg version="1.1" id="eco" xmlns="http://www.w3.org/2000/svg" xmlns:xlink="http://www.w3.org/1999/xlink" x="0px" y="0px"
	 viewBox="0 0 200 200" style="enable-background:new 0 0 200 200;" xml:space="preserve">
<g id="leaf">
	<path id="leaf2" d="M182.4,96.7c0-0.4-0.4-0.8-0.8-0.9c-24-4.3-42.3-0.7-54.3,10.8c-19.3,18.4-15.7,51.2-15.5,52.8
		c-2.2,3.8-4,7.9-5.2,12.1c-0.2,0.5,0.1,1.1,0.6,1.3c0,0,0.1,0,0.1,0c0.1,0,0.2,0,0.3,0.1c0.5,0,0.9-0.3,1-0.8c1.2-4.1,2.9-8,5-11.6
		c3.9,0.4,7.7,0.6,11.3,0.6c19,0,33.6-5.2,43.5-15.6C186.4,126.7,182.5,97,182.4,96.7z M166.8,144.1c-11.2,11.7-28.8,16.5-52.1,14.4
		c13.2-21.5,38.7-38.4,39-38.6c0.5-0.3,0.6-1,0.3-1.4c-0.3-0.5-1-0.6-1.4-0.3c-7,4.8-13.7,10.1-19.9,15.9
		c-7.3,6.6-13.7,14.1-19.1,22.3c-0.5-8.4-0.5-33.3,15.1-48.2c11.4-10.9,28.8-14.4,51.8-10.4C180.9,102.4,182.7,127.6,166.8,144.1z"
		/>
	<path id="leaf1" d="M106.6,122.3c-1.5-4.9-3.6-9.5-6.2-13.8c0.4-4.5,2.8-34.8-15.6-52.3C72.8,44.7,54.5,41.1,30.5,45.4
		c-0.5,0.1-0.8,0.4-0.9,0.9c0,0.3-4,29.9,14.1,48.8c10,10.4,24.6,15.6,43.6,15.6c3.7,0,7.6-0.2,11.6-0.6c2.5,4,4.4,8.3,5.8,12.9
		c0.1,0.5,0.5,0.8,1,0.8c0.1,0,0.2,0,0.3,0C106.5,123.5,106.8,122.9,106.6,122.3C106.6,122.4,106.6,122.3,106.6,122.3z M45.2,93.6
		C29.4,77.2,31.1,52,31.6,47.3c22.9-4,40.3-0.5,51.7,10.4C98.8,72.5,99,96.9,98.5,105.6C93.2,97.8,86.9,90.7,80,84.3
		c-6.4-6-13.3-11.5-20.5-16.5C59,67.4,58.4,67.6,58,68c-0.3,0.5-0.2,1.1,0.3,1.4l0,0c0.3,0.2,25.7,17.3,39.3,38.6
		C74.1,110.2,56.5,105.3,45.2,93.6z"/>
</g>
<g id="arrows">
	<path id="arrow2" d="M150.8,168.2c-0.5-0.7-1.5-0.8-2.2-0.3c0,0,0,0,0,0c-12.7,10.2-28.6,15.7-44.9,15.6c-39.8,0-72-32.1-72.3-71.9
		l8.7,10.2c0.6,0.6,1.6,0.6,2.2,0c0.5-0.5,0.6-1.4,0.2-2l-11.4-13.3c-0.6-0.7-1.6-0.7-2.2-0.2c-0.1,0.1-0.2,0.2-0.3,0.4l-9.5,15.2
		c-0.5,0.7-0.2,1.7,0.5,2.2c0.7,0.4,1.7,0.2,2.1-0.5l6.5-10.5c1,40.9,34.5,73.6,75.4,73.6c17,0.1,33.5-5.7,46.8-16.3
		C151.2,169.9,151.3,168.9,150.8,168.2z"/>
	<path id="arrow1" d="M177.5,65.1c-0.8-0.1-1.7,0.4-1.8,1.3c0,0,0,0,0,0l-2.1,12.5c-11.5-28.4-39.2-47-69.8-46.9
		c-4.6,0-9.1,0.4-13.6,1.2c-0.4,0.1-9,1.8-13.1,5.9c-0.6,0.6-0.6,1.6,0,2.2s1.6,0.6,2.2,0c3.4-3.4,11.4-5,11.4-5
		c4.3-0.8,8.6-1.2,13-1.2c29.7-0.2,56.5,18,67.3,45.7l-11.6-5.9c-0.8-0.4-1.7,0-2.1,0.8c-0.3,0.7,0,1.6,0.7,2l15.6,7.9
		c0.2,0.1,0.5,0.2,0.7,0.2c0.8,0,1.4-0.6,1.5-1.3l3-17.6C179,66,178.4,65.2,177.5,65.1C177.5,65.1,177.5,65.1,177.5,65.1z"/>
</g>
</svg>
